<?xml version="1.0" encoding="UTF-8" standalone="no"?>
<!-- Generator: Adobe Illustrator 19.1.0, SVG Export Plug-In . SVG Version: 6.00 Build 0)  -->

<svg
   version="1.1"
   id="Layer_1"
   x="0px"
   y="0px"
   width="350.04688"
   height="300.22363"
   viewBox="0 0 350.04688 300.22363"
   enable-background="new 0 0 3318 3318"
   xml:space="preserve"
   sodipodi:docname="windrain.svg"
   inkscape:version="1.3 (0e150ed6c4, 2023-07-21)"
   xmlns:inkscape="http://www.inkscape.org/namespaces/inkscape"
   xmlns:sodipodi="http://sodipodi.sourceforge.net/DTD/sodipodi-0.dtd"
   xmlns="http://www.w3.org/2000/svg"
   xmlns:svg="http://www.w3.org/2000/svg"><defs
   id="defs8" /><sodipodi:namedview
   id="namedview8"
   pagecolor="#ffffff"
   bordercolor="#000000"
   borderopacity="0.25"
   inkscape:showpageshadow="2"
   inkscape:pageopacity="0.0"
   inkscape:pagecheckerboard="0"
   inkscape:deskcolor="#d1d1d1"
   inkscape:zoom="0.23417722"
   inkscape:cx="-392.86486"
   inkscape:cy="-484.67568"
   inkscape:window-width="1920"
   inkscape:window-height="991"
   inkscape:window-x="-9"
   inkscape:window-y="-9"
   inkscape:window-maximized="1"
   inkscape:current-layer="Layer_1" />&#10;&#10;<path
   fill="#010202"
   d="M 313.708,134.28418 H 61 c -5.5225,0 -10,-4.4775 -10,-10 0,-5.5225 4.4775,-10 10,-10 h 252.708 c 8.8565,0 16.3389,-7.6084 16.3389,-16.6143 0,-9.1611 -7.2608,-16.6142 -16.1856,-16.6142 -8.8828,0 -16.1094,7.4004 -16.1094,16.4961 0,5.5224 -4.4775,10 -10,10 -5.5224,0 -10,-4.4776 -10,-10 0,-20.124 16.1983,-36.4961 36.1094,-36.4961 19.9531,0 36.1856,16.4248 36.1856,36.6142 0,20.1895 -16.3018,36.6143 -36.3389,36.6143 z"
   id="path1" />&#10;<path
   fill="#010202"
   d="M 214.4883,91.28418 H 10 c -5.5225,0 -10,-4.4775 -10,-10 0,-5.5225 4.4775,-10 10,-10 h 204.4883 c 14.124,0 25.6142,-11.5029 25.6142,-25.6426 0,-14.1386 -11.3554,-25.6416 -25.3134,-25.6416 -13.875,0 -25.1631,11.4756 -25.1631,25.5821 0,5.5224 -4.4776,10 -10,10 -5.5225,0 -10,-4.4776 -10,-10 0,-25.1338 20.2597,-45.5821 45.1631,-45.5821 24.9863,0 45.3134,20.4746 45.3134,45.6416 0,25.167 -20.4628,45.6426 -45.6142,45.6426 z"
   id="path2" />&#10;<path
   fill="#010202"
   d="m 299.3555,246.85738 c -24.961,0 -45.2686,-20.3418 -45.2686,-45.3457 0,-5.5224 4.4776,-10 10,-10 5.5225,0 10,4.4776 10,10 0,13.9756 11.335,25.3457 25.2686,25.3457 13.9873,0 25.3672,-11.3437 25.3672,-25.2861 0,-13.9433 -11.4668,-25.2871 -25.5625,-25.2871 H 30 c -5.5225,0 -10,-4.4775 -10,-10 0,-5.5225 4.4775,-10 10,-10 h 269.1602 c 25.123,0 45.5625,20.3154 45.5625,45.2871 0,24.9707 -20.3516,45.2861 -45.3672,45.2861 z"
   id="path3" />&#10;<path
   fill="#010202"
   d="m 132.958,300.22358 c -2.5615,0 -5.1221,-0.9775 -7.0742,-2.9326 -3.9033,-3.9072 -3.9004,-10.2392 0.01,-14.1416 l 25.042,-25.0166 c 3.9072,-3.9033 10.2403,-3.9004 14.1416,0.01 3.9033,3.9072 3.9004,10.2392 -0.01,14.1416 l -25.042,25.0166 c -1.9522,1.9502 -4.5098,2.9257 -7.0674,2.9257 z"
   id="path4" />&#10;<path
   fill="#010202"
   d="m 45.958,243.22358 c -2.5615,0 -5.1211,-0.9775 -7.0742,-2.9326 -3.9033,-3.9072 -3.9004,-10.2383 0.01,-14.1416 l 15.792,-15.7763 c 3.9072,-3.9034 10.2383,-3.9004 14.1416,0.01 3.9033,3.9072 3.9004,10.2383 -0.01,14.1416 l -15.792,15.7764 c -1.9522,1.9502 -4.5098,2.9257 -7.0674,2.9257 z"
   id="path5" />&#10;<path
   fill="#010202"
   d="m 184.958,243.22358 c -2.5615,0 -5.1211,-0.9775 -7.0742,-2.9326 -3.9033,-3.9072 -3.9004,-10.2383 0.01,-14.1416 l 15.792,-15.7763 c 3.9072,-3.9034 10.2383,-3.9004 14.1416,0.01 3.9033,3.9072 3.9004,10.2383 -0.01,14.1416 l -15.792,15.7764 c -1.9522,1.9502 -4.5098,2.9257 -7.0674,2.9257 z"
   id="path6" />&#10;	&#10;	&#10;<path
   fill="#010202"
   d="m 227.958,281.38668 c -2.5635,0 -5.1269,-0.9795 -7.081,-2.9384 -3.8994,-3.9112 -3.8907,-10.2422 0.019,-14.1426 l 18.9922,-18.9395 c 3.9111,-3.8984 10.2412,-3.8926 14.1426,0.02 3.8994,3.9111 3.8906,10.2422 -0.02,14.1425 l -18.9922,18.9395 c -1.9521,1.9463 -4.5068,2.9189 -7.0615,2.9189 z"
   id="path7" />&#10;<path
   fill="#010202"
   d="m 78.958,279.38668 c -2.5615,0 -5.1221,-0.9775 -7.0742,-2.9326 -3.9033,-3.9072 -3.9004,-10.2383 0.01,-14.1416 l 51.9922,-51.9394 c 3.9072,-3.9033 10.2402,-3.9004 14.1416,0.01 3.9033,3.9072 3.9004,10.2383 -0.01,14.1416 l -51.9922,51.9395 c -1.9522,1.9501 -4.5098,2.9257 -7.0674,2.9257 z"
   id="path8" />&#10;</svg>
