<?xml version="1.0" encoding="UTF-8" standalone="no"?>
<!-- Generator: Adobe Illustrator 19.1.0, SVG Export Plug-In . SVG Version: 6.00 Build 0)  -->

<svg
   version="1.1"
   id="Layer_1"
   x="0px"
   y="0px"
   width="350.37402"
   height="246.85791"
   viewBox="0 0 350.37402 246.85791"
   enable-background="new 0 0 3318 3318"
   xml:space="preserve"
   sodipodi:docname="wind.svg"
   inkscape:version="1.3 (0e150ed6c4, 2023-07-21)"
   xmlns:inkscape="http://www.inkscape.org/namespaces/inkscape"
   xmlns:sodipodi="http://sodipodi.sourceforge.net/DTD/sodipodi-0.dtd"
   xmlns="http://www.w3.org/2000/svg"
   xmlns:svg="http://www.w3.org/2000/svg"><defs
   id="defs3" /><sodipodi:namedview
   id="namedview3"
   pagecolor="#ffffff"
   bordercolor="#000000"
   borderopacity="0.25"
   inkscape:showpageshadow="2"
   inkscape:pageopacity="0.0"
   inkscape:pagecheckerboard="0"
   inkscape:deskcolor="#d1d1d1"
   inkscape:zoom="0.23417722"
   inkscape:cx="-388.59459"
   inkscape:cy="83.27027"
   inkscape:window-width="1920"
   inkscape:window-height="991"
   inkscape:window-x="-9"
   inkscape:window-y="-9"
   inkscape:window-maximized="1"
   inkscape:current-layer="Layer_1" />&#10;&#10;<path
   fill="#010202"
   d="m 289.37402,135.03467 h -253.082 c -19.6719,0 -36.292,-16.939 -36.292,-36.9893 0,-20.396 16.2539,-36.9897 36.2324,-36.9897 19.9629,0 36.2031,16.4849 36.2031,36.7471 0,5.5229 -4.4775,10 -10,10 -5.5224,0 -10,-4.4771 -10,-10 0,-9.0777 -7.4199,-16.7471 -16.2031,-16.7471 -8.7988,0 -16.2324,7.7803 -16.2324,16.9897 0,9.209 7.4609,16.9893 16.292,16.9893 h 253.082 c 5.5225,0 10,4.4771 10,10 0,5.523 -4.4775,10 -10,10 z"
   id="path1" />&#10;<path
   fill="#010202"
   d="m 340.37402,92.03467 h -204.8623 c -25.126,0 -45.5674,-20.6431 -45.5674,-46.0171 0,-25.374 20.3487,-46.0176 45.3604,-46.0176 24.9551,0 45.2568,20.5606 45.2568,45.833 0,5.523 -4.4775,10 -10,10 -5.5224,0 -10,-4.477 -10,-10 0,-14.2441 -11.3301,-25.833 -25.2568,-25.833 -13.9834,0 -25.3604,11.6714 -25.3604,26.0176 0,14.1026 11.708,26.0171 25.5674,26.0171 h 204.8623 c 5.5225,0 10,4.4771 10,10 0,5.523 -4.4775,10 -10,10 z"
   id="path2" />&#10;<path
   fill="#010202"
   d="m 68.73832,246.85787 c -12.1387,0 -23.5215,-4.6064 -32.0528,-12.9707 -8.6152,-8.4463 -13.3603,-19.79 -13.3603,-31.9404 0,-24.7646 20.418,-44.9121 45.5146,-44.9121 h 249.5342 c 5.5225,0 10,4.4775 10,10 0,5.5225 -4.4775,10 -10,10 H 68.83982 c -14.3076,0 -25.5146,10.9424 -25.5146,24.9121 0,13.9688 11.1631,24.9111 25.4131,24.9111 14.2216,0 25.3623,-11.0234 25.3623,-25.0957 0,-5.5224 4.4775,-10 10,-10 5.5224,0 10,4.4776 10,10 0,24.8663 -20.3497,45.0957 -45.3623,45.0957 z"
   id="path3" />&#10;&#10;</svg>
